<svg width="200.000000" height="208.000000" viewBox="0 0 200 208" fill="none" xmlns="http://www.w3.org/2000/svg" xmlns:xlink="http://www.w3.org/1999/xlink">
		<linearGradient id="paint_linear_3_10_0" x1="86.899231" y1="18.514223" x2="86.899231" y2="103.934998" gradientUnits="userSpaceOnUse">
			<stop stop-color="#FFFCC9"/>
			<stop offset="1.000000" stop-color="#FFF799"/>
		</linearGradient>
		<linearGradient id="paint_linear_0_76_0" x1="13.000000" y1="50.000000" x2="13.000000" y2="167.000000" gradientUnits="userSpaceOnUse">
			<stop stop-color="#A9D9FF"/>
			<stop offset="1.000000" stop-color="#7AC5FF"/>
		</linearGradient>
	<rect id="partly cloudy" width="200.000000" height="200.000000" transform="translate(0.000000 8.000000)" fill="#FFFFFF" fill-opacity="0"/>
	<rect id="sun" width="123.000000" height="123.000000" transform="translate(69.000000 0.000000)" fill="#FFFFFF" fill-opacity="0"/>
	<mask id="mask_3_10" fill="white">
		<path id="Combined Shape" d="" fill="" fill-opacity="1.000000" fill-rule="nonzero"/>
	</mask>
	<path id="Combined Shape" d="" fill="url(#paint_linear_3_10_0)" fill-opacity="1.000000" fill-rule="nonzero" mask="url(#mask_3_10)"/>
	<path id="Combined Shape" d="" fill="#979797" fill-opacity="0.000000" fill-rule="nonzero"/>
	<mask id="mask_0_76" fill="white">
		<path id="Combined Shape" d="M47.29 87.0386C49.7446 66.1809 67.4827 50 89 50C103.835 50 116.874 57.6914 124.346 69.304C127.975 68.4511 131.759 68 135.648 68C162.904 68 185 90.1619 185 117.5C185 144.838 162.904 167 135.648 167L53.0682 167C30.9391 167 13 149.007 13 126.812C13 106.585 27.8988 89.8477 47.29 87.0386Z" clip-rule="evenodd" fill="" fill-opacity="1.000000" fill-rule="evenodd"/>
	</mask>
	<path id="Combined Shape" d="M47.29 87.0386C49.7446 66.1809 67.4827 50 89 50C103.835 50 116.874 57.6914 124.346 69.304C127.975 68.4511 131.759 68 135.648 68C162.904 68 185 90.1619 185 117.5C185 144.838 162.904 167 135.648 167L53.0682 167C30.9391 167 13 149.007 13 126.812C13 106.585 27.8988 89.8477 47.29 87.0386Z" clip-rule="evenodd" fill="url(#paint_linear_0_76_0)" fill-opacity="1.000000" fill-rule="evenodd" mask="url(#mask_0_76)"/>
	<path id="Combined Shape" d="" fill="#979797" fill-opacity="0.000000" fill-rule="nonzero"/>
</svg>
