<svg width="138.000000" height="138.000000" viewBox="0 0 138 138" fill="none" xmlns="http://www.w3.org/2000/svg" xmlns:xlink="http://www.w3.org/1999/xlink">
			<linearGradient id="paint_linear_0_94_0" x1="-0.895630" y1="-0.895569" x2="-0.895630" y2="138.000000" gradientUnits="userSpaceOnUse">
			<stop stop-color="#FFFCC9"/>
			<stop offset="1.000000" stop-color="#FFF799"/>
		</linearGradient>
	<mask id="mask_0_94" fill="white">
		<path id="Combined Shape" d="M64 4.10443L64 25.2411C64 28.0025 66.2385 30.2411 69 30.2411C71.7614 30.2411 74 28.0025 74 25.2411L74 4.10443C74 1.34301 71.7614 -0.895569 69 -0.895569C66.2385 -0.895569 64 1.34301 64 4.10443ZM19.7834 26.1474L34.7292 41.0933C36.6819 43.0459 39.8478 43.0459 41.8003 41.0933C42.7766 40.117 43.2648 38.8374 43.2648 37.5578C43.2648 36.2782 42.7766 34.9985 41.8003 34.0222L26.8545 19.0764C24.9019 17.1237 21.7361 17.1237 19.7834 19.0764C18.8071 20.0527 18.319 21.3323 18.319 22.6119C18.319 23.8915 18.8071 25.1711 19.7834 26.1474ZM109.853 19.7835L94.9066 34.7293C93.9303 35.7056 93.4421 36.9853 93.4421 38.2649C93.4421 39.5445 93.9303 40.8241 94.9066 41.8004C96.8593 43.753 100.025 43.753 101.978 41.8004L116.924 26.8545C117.9 25.8782 118.388 24.5986 118.388 23.319C118.388 22.0394 117.9 20.7598 116.924 19.7835C114.971 17.8309 111.805 17.8309 109.853 19.7835ZM68.5 101C86.4492 101 101 86.4493 101 68.5C101 50.5507 86.4492 36 68.5 36C50.5507 36 36 50.5507 36 68.5C36 86.4493 50.5507 101 68.5 101ZM4.10437 72L25.241 72C28.0024 72 30.241 69.7614 30.241 67C30.241 64.2386 28.0024 62 25.241 62L4.10437 62C1.3429 62 -0.89563 64.2386 -0.89563 67C-0.89563 69.7614 1.3429 72 4.10437 72ZM111.863 72L133 72C135.761 72 138 69.7614 138 67C138 64.2386 135.761 62 133 62L111.863 62C109.102 62 106.863 64.2386 106.863 67C106.863 69.7614 109.102 72 111.863 72ZM95.9805 102.345L110.926 117.29C112.879 119.243 116.045 119.243 117.997 117.29C118.974 116.314 119.462 115.034 119.462 113.755C119.462 112.475 118.974 111.196 117.997 110.219L103.052 95.2734C101.099 93.3208 97.9331 93.3208 95.9805 95.2734C95.0042 96.2498 94.516 97.5294 94.516 98.809C94.516 100.089 95.0042 101.368 95.9805 102.345ZM33.6554 95.9806L18.7096 110.926C17.7333 111.903 17.2451 113.182 17.2451 114.462C17.2451 115.742 17.7333 117.021 18.7096 117.997C20.6622 119.95 23.828 119.95 25.7806 117.997L40.7264 103.052C41.7028 102.075 42.1909 100.796 42.1909 99.5161C42.1909 98.2365 41.7028 96.9569 40.7264 95.9806C38.7739 94.0279 35.608 94.0279 33.6554 95.9806ZM64 111.863L64 133C64 135.761 66.2385 138 69 138C71.7614 138 74 135.761 74 133L74 111.863C74 109.102 71.7614 106.863 69 106.863C66.2385 106.863 64 109.102 64 111.863Z" clip-rule="evenodd" fill="" fill-opacity="1.000000" fill-rule="evenodd"/>
	</mask>
	<path id="Combined Shape" d="M64 4.10443L64 25.2411C64 28.0025 66.2385 30.2411 69 30.2411C71.7614 30.2411 74 28.0025 74 25.2411L74 4.10443C74 1.34301 71.7614 -0.895569 69 -0.895569C66.2385 -0.895569 64 1.34301 64 4.10443ZM19.7834 26.1474L34.7292 41.0933C36.6819 43.0459 39.8478 43.0459 41.8003 41.0933C42.7766 40.117 43.2648 38.8374 43.2648 37.5578C43.2648 36.2782 42.7766 34.9985 41.8003 34.0222L26.8545 19.0764C24.9019 17.1237 21.7361 17.1237 19.7834 19.0764C18.8071 20.0527 18.319 21.3323 18.319 22.6119C18.319 23.8915 18.8071 25.1711 19.7834 26.1474ZM109.853 19.7835L94.9066 34.7293C93.9303 35.7056 93.4421 36.9853 93.4421 38.2649C93.4421 39.5445 93.9303 40.8241 94.9066 41.8004C96.8593 43.753 100.025 43.753 101.978 41.8004L116.924 26.8545C117.9 25.8782 118.388 24.5986 118.388 23.319C118.388 22.0394 117.9 20.7598 116.924 19.7835C114.971 17.8309 111.805 17.8309 109.853 19.7835ZM68.5 101C86.4492 101 101 86.4493 101 68.5C101 50.5507 86.4492 36 68.5 36C50.5507 36 36 50.5507 36 68.5C36 86.4493 50.5507 101 68.5 101ZM4.10437 72L25.241 72C28.0024 72 30.241 69.7614 30.241 67C30.241 64.2386 28.0024 62 25.241 62L4.10437 62C1.3429 62 -0.89563 64.2386 -0.89563 67C-0.89563 69.7614 1.3429 72 4.10437 72ZM111.863 72L133 72C135.761 72 138 69.7614 138 67C138 64.2386 135.761 62 133 62L111.863 62C109.102 62 106.863 64.2386 106.863 67C106.863 69.7614 109.102 72 111.863 72ZM95.9805 102.345L110.926 117.29C112.879 119.243 116.045 119.243 117.997 117.29C118.974 116.314 119.462 115.034 119.462 113.755C119.462 112.475 118.974 111.196 117.997 110.219L103.052 95.2734C101.099 93.3208 97.9331 93.3208 95.9805 95.2734C95.0042 96.2498 94.516 97.5294 94.516 98.809C94.516 100.089 95.0042 101.368 95.9805 102.345ZM33.6554 95.9806L18.7096 110.926C17.7333 111.903 17.2451 113.182 17.2451 114.462C17.2451 115.742 17.7333 117.021 18.7096 117.997C20.6622 119.95 23.828 119.95 25.7806 117.997L40.7264 103.052C41.7028 102.075 42.1909 100.796 42.1909 99.5161C42.1909 98.2365 41.7028 96.9569 40.7264 95.9806C38.7739 94.0279 35.608 94.0279 33.6554 95.9806ZM64 111.863L64 133C64 135.761 66.2385 138 69 138C71.7614 138 74 135.761 74 133L74 111.863C74 109.102 71.7614 106.863 69 106.863C66.2385 106.863 64 109.102 64 111.863Z" clip-rule="evenodd" fill="url(#paint_linear_0_94_0)" fill-opacity="1.000000" fill-rule="evenodd" mask="url(#mask_0_94)"/>
	<path id="Combined Shape" d="" fill="#979797" fill-opacity="0.000000" fill-rule="nonzero"/>
</svg>
